<?xml version="1.0" encoding="UTF-8" standalone="no"?>
<!-- Created with Inkscape (http://www.inkscape.org/) -->

<svg
   width="273.98123mm"
   height="186.45744mm"
   viewBox="0 0 273.98123 186.45744"
   version="1.1"
   id="svg5"
   xml:space="preserve"
   inkscape:version="1.2.1 (9c6d41e4, 2022-07-14)"
   sodipodi:docname="bsjs.svg"
   xmlns:inkscape="http://www.inkscape.org/namespaces/inkscape"
   xmlns:sodipodi="http://sodipodi.sourceforge.net/DTD/sodipodi-0.dtd"
   xmlns="http://www.w3.org/2000/svg"
   xmlns:svg="http://www.w3.org/2000/svg"><sodipodi:namedview
     id="namedview7"
     pagecolor="#ffffff"
     bordercolor="#000000"
     borderopacity="0.25"
     inkscape:showpageshadow="2"
     inkscape:pageopacity="0.0"
     inkscape:pagecheckerboard="0"
     inkscape:deskcolor="#d1d1d1"
     inkscape:document-units="mm"
     showgrid="false"
     inkscape:zoom="0.6237099"
     inkscape:cx="315.05031"
     inkscape:cy="431.29025"
     inkscape:window-width="1505"
     inkscape:window-height="918"
     inkscape:window-x="0"
     inkscape:window-y="25"
     inkscape:window-maximized="0"
     inkscape:current-layer="layer1" /><defs
     id="defs2"><linearGradient
       id="bs-logo-a"
       x1="76.079002"
       x2="523.47998"
       y1="10.798"
       y2="365.94501"
       gradientUnits="userSpaceOnUse"><stop
         stop-color="#9013fe"
         id="stop9" /><stop
         offset="1"
         stop-color="#6610f2"
         id="stop11" /></linearGradient><linearGradient
       id="bs-logo-b"
       x1="193.508"
       x2="293.51401"
       y1="109.74"
       y2="278.87201"
       gradientUnits="userSpaceOnUse"><stop
         stop-color="#fff"
         id="stop14" /><stop
         offset="1"
         stop-color="#f1e5fc"
         id="stop16" /></linearGradient><filter
       id="bs-logo-c"
       width="197"
       height="249"
       x="161.901"
       y="83.457001"
       color-interpolation-filters="sRGB"
       filterUnits="userSpaceOnUse"><feFlood
         flood-opacity="0"
         result="BackgroundImageFix"
         id="feFlood19" /><feColorMatrix
         in="SourceAlpha"
         values="0 0 0 0 0 0 0 0 0 0 0 0 0 0 0 0 0 0 127 0"
         id="feColorMatrix21" /><feOffset
         dy="4"
         id="feOffset23" /><feGaussianBlur
         stdDeviation="8"
         id="feGaussianBlur25" /><feColorMatrix
         values="0 0 0 0 0 0 0 0 0 0 0 0 0 0 0 0 0 0 0.15 0"
         id="feColorMatrix27" /><feBlend
         in2="BackgroundImageFix"
         result="effect1_dropShadow"
         id="feBlend29"
         mode="normal" /><feBlend
         in="SourceGraphic"
         in2="effect1_dropShadow"
         result="shape"
         id="feBlend31"
         mode="normal" /></filter></defs><g
     inkscape:label="Layer 1"
     inkscape:groupmode="layer"
     id="layer1"
     transform="translate(70.093674,51.284225)"><rect
       width="166.6875"
       height="166.6875"
       fill="#f7df1e"
       id="rect166"
       x="37.200062"
       y="-51.284225"
       style="stroke-width:0.264583" /><g
       id="g60"
       transform="matrix(0.34977413,0,0,0.34977413,-70.093674,-7.5346209)"><path
         fill="url(#bs-logo-a)"
         d="M 56.481,53.32 C 55.515,25.58 77.128,0 106.342,0 h 299.353 c 29.214,0 50.827,25.58 49.861,53.32 -0.928,26.647 0.277,61.165 8.964,89.31 8.715,28.232 23.411,46.077 47.48,48.37 v 26 c -24.069,2.293 -38.765,20.138 -47.48,48.37 -8.687,28.145 -9.892,62.663 -8.964,89.311 C 456.522,382.42 434.909,408 405.695,408 H 106.342 C 77.128,408 55.515,382.42 56.482,354.681 57.409,328.033 56.204,293.515 47.516,265.37 38.802,237.138 24.07,219.293 0,217 v -26 c 24.069,-2.293 38.802,-20.138 47.516,-48.37 8.688,-28.145 9.893,-62.663 8.965,-89.31 z"
         id="path36"
         style="fill:url(#bs-logo-a)" /><path
         fill="url(#bs-logo-b)"
         filter="url(#bs-logo-c)"
         stroke="#ffffff"
         d="m 267.103,312.457 c 47.297,0 75.798,-23.158 75.798,-61.355 0,-28.873 -20.336,-49.776 -50.532,-53.085 v -1.203 c 22.185,-3.609 39.594,-24.211 39.594,-47.219 0,-32.783 -25.882,-54.138 -65.322,-54.138 h -88.74 v 217 z m -54.692,-189.48 h 45.911 c 24.958,0 39.131,11.128 39.131,31.279 0,21.505 -16.484,33.535 -46.372,33.535 h -38.67 z m 0,161.961 v -71.431 h 45.602 c 32.661,0 49.608,12.03 49.608,35.49 0,23.459 -16.484,35.941 -47.605,35.941 z"
         id="path38"
         style="fill:url(#bs-logo-b)" /></g><path
       d="m 149.17173,78.941042 c 3.35756,5.482167 7.72583,9.511771 15.45166,9.511771 6.49023,0 10.63625,-3.243792 10.63625,-7.725833 0,-5.371042 -4.25979,-7.273396 -11.40354,-10.398125 l -3.91583,-1.680104 c -11.303,-4.815417 -18.81188,-10.847917 -18.81188,-23.600833 0,-11.7475 8.95086,-20.690417 22.93938,-20.690417 9.95891,0 17.11854,3.466042 22.27791,12.54125 l -12.19729,7.831667 c -2.68552,-4.815417 -5.58271,-6.712479 -10.08062,-6.712479 -4.58788,0 -7.49565,2.910416 -7.49565,6.712479 0,4.699 2.91042,6.601354 9.63083,9.51177 l 3.91584,1.677459 c 13.30854,5.707062 20.82271,11.52525 20.82271,24.606249 0,14.102292 -11.07811,21.828124 -25.95563,21.828124 -14.54679,0 -23.94479,-6.932082 -28.54325,-16.017874 z m -55.332317,1.357313 c 2.460625,4.365625 4.699,8.056562 10.080627,8.056562 5.14614,0 8.39258,-2.013479 8.39258,-9.8425 V 25.251793 h 15.66333 v 53.472291 c 0,16.218958 -9.50912,23.600836 -23.38916,23.600836 -12.541252,0 -19.804064,-6.490232 -23.497647,-14.307347 z"
       id="path168"
       style="stroke-width:0.264583" /><text
       xml:space="preserve"
       style="font-weight:bold;font-size:50.8px;font-family:'VictorMono Nerd Font';-inkscape-font-specification:'VictorMono Nerd Font Bold';fill:#f9f9f9;stroke-width:0.264583"
       x="46.988003"
       y="99.309959"
       id="text280"><tspan
         sodipodi:role="line"
         id="tspan278"
         style="font-style:normal;font-variant:normal;font-weight:bold;font-stretch:normal;font-size:50.8px;font-family:'Comic Sans MS';-inkscape-font-specification:'Comic Sans MS Bold';stroke-width:0.264583"
         x="46.988003"
         y="99.309959">S</tspan></text></g></svg>
